<svg id="Ring1" xmlns="http://www.w3.org/2000/svg" viewBox="0 0 713.28 459.04"><defs><style>.cls-1,.cls-3{fill:#fff;stroke:#fff;}.cls-1{stroke-miterlimit:10;stroke-width:5px;}.cls-2{fill:none;}.cls-3{stroke-miterlimit:10;stroke-width:8px;}</style></defs><g id="necleus"><ellipse id="circle" class="cls-1" cx="365.66" cy="199.68" rx="127.11" ry="123.75"/><path id="n" class="cls-2" d="M354.31,284.83s11.39,6.79,47,7.15c0,0,7.34-8.23,11-52.23,0,0,1.1-24.32-1.84-40.42,0,0,4.41-9.46,15.06,6.54s23.89,49.27,21,70.73c0,0,20.58-3.94,30.86-50.08s-4.4-74.79-20.93-100.17l-28.29-12.16s10.65,22.9,15.8,61.53c0,0,.37,4.65-12.5-12.88S380.4,91.3,354.31,107.4s34.54,75.12,5.15,161.69Z" transform="translate(0 0)"/></g><path class="cls-1" d="M642.76,162.29c12.73-24.66,16.32-48.59,8.79-69.88-4.71-13.34-13.47-24.73-25.6-34.14,0-.76.08-1.52.08-2.3a38.59,38.59,0,0,0-67.89-25.11c-42.38-7.94-95.59-6.69-153.43,4.29C211.78-24.1,33.52-.51,6.07,88.15c-13.51,43.64,12,94.93,64.46,142.93-12.73,24.65-16.32,48.57-8.83,69.86,7.12,20.13,23.44,35.85,46.67,46.95v.57a41.77,41.77,0,0,0,79.37,18.17c5.39-12.83,4.09-20.5,4.09-20.5A41.75,41.75,0,0,0,119,320.73c-11.54-8.56-19.84-19.06-24.22-31.43-4.27-12.09-4.49-25.13-1.16-38.69,46.33,36.49,107.91,70.08,179,95.63l36,12c192.93,59.26,371.19,35.66,398.64-53C720.7,261.58,695.17,210.3,642.76,162.29ZM549,52.39c-.11,1.18-.17,2.38-.17,3.58A38.58,38.58,0,0,0,609.6,87.56a61,61,0,0,1,9,16.52c4.27,12.08,4.5,25.12,1.16,38.68-46.38-36.49-108-70-179.06-95.63C482,42.87,519.18,44.73,549,52.39Zm-459.1,149c-28.16-33.31-40.32-67.24-31.11-97A70.87,70.87,0,0,1,74.43,77.55,32.25,32.25,0,1,1,128.7,45.21c55.14-18.29,136.12-18.41,224,2.14q-21.79,6.07-44,13.9c-98,34.68-177.14,87.4-218.79,140.19Zm564.58,87.46c-.35,1.12-.73,2.24-1.14,3.34-.13.36-.28.72-.42,1.08-.29.73-.57,1.47-.88,2.19-.18.43-.38.84-.57,1.26-.3.65-.59,1.3-.91,1.94-.22.44-.44.88-.67,1.31-.32.61-.64,1.22-1,1.82-.25.44-.5.88-.76,1.31-.34.59-.69,1.17-1.06,1.75s-.54.86-.82,1.29-.76,1.14-1.16,1.71l-.87,1.23c-.42.58-.85,1.14-1.29,1.7-.3.39-.59.79-.91,1.17-.47.59-1,1.17-1.45,1.74-.3.35-.58.7-.89,1-.58.67-1.2,1.32-1.81,2l-.68.74c-.86.88-1.74,1.76-2.64,2.62l-.67.61c-.7.66-1.4,1.3-2.13,1.94l-1.09.93c-.61.52-1.23,1-1.86,1.54-.41.34-.84.67-1.26,1l-1.82,1.4-1.38,1c-.62.44-1.23.88-1.86,1.31l-1.46,1L619.11,332l-1.52,1c-.66.41-1.34.81-2,1.21l-1.56.92c-.71.4-1.42.8-2.14,1.19-.52.29-1,.58-1.56.86L608,338.44c-.49.25-1,.5-1.45.74-1,.51-2.08,1-3.14,1.5l-.81.39c-1.33.61-2.67,1.2-4,1.78l-1.55.63c-.88.37-1.75.73-2.65,1.09l-1.85.7-2.47.94-2,.71-2.46.85-2.08.69-2.48.79-2.16.66-2.52.74-2.22.62-2.59.7-2.25.58c-.89.23-1.8.44-2.7.66l-2.24.54-3,.65-2.1.46c-1.6.34-3.22.66-4.85,1l-2.14.39c-1.08.2-2.16.4-3.26.58l-2.45.4-2.89.5-2.62.38-2.81.4-2.73.35-2.8.34-2.81.31-2.82.3-2.86.27-2.86.25-2.91.24-2.89.2-3,.19-2.94.16-3,.16-3,.11c-1.76.07-3.52.12-5.29.17l-3.48.08H482.41l-3.33-.06-3-.06-3.38-.1-3-.11-3.42-.14-3-.15-3.47-.19-3-.19-3.52-.23-3-.23-3.59-.29-2.94-.26-3.72-.34L437.7,359c-2.68-.27-5.38-.57-8.09-.88l-2.62-.3-3.83-.49-3-.38-3.77-.52-3.1-.43-3.78-.57-3.12-.48-3.81-.61-3.16-.52-3.81-.66-3.18-.57-3.85-.7-3.18-.61-3.89-.75-3.14-.64-4-.82-3-.64q-5.44-1.18-10.93-2.45L314.3,333.45c-88-27.23-161.56-69.2-207.46-113.92,30-50.13,100.94-102.63,192.48-137.67a134.43,134.43,0,0,1,48.16-16.13c12.94-3.75,25.75-7,38.34-9.73,4.38,1.27,8.77,2.57,13.17,3.93,87.95,27.23,161.56,69.21,207.46,113.92-2.15,3.61-4.53,7.23-7.1,10.86a47.94,47.94,0,0,0-66.65,64s5.15,9.53,11.52,14A47.93,47.93,0,0,0,615.81,201q4-4.55,7.57-9.1c28.16,33.34,40.32,67.26,31.11,97Z" transform="translate(0 0)"/><g id="Evolution"><g id="E"><path class="cls-2" d="M158.63,372.05l-4.84,13.14L145,381.94q-15.39-5.67-20.36-18.79a33.29,33.29,0,0,1-.42-24,32.9,32.9,0,0,1,18.74-19.63q11.5-4.93,24-.33l9.86,3.63L172,336,166,333.73q-14.64-5.4-22.2,5.57L167.48,348l-4.36,11.82-23.64-8.71a15.41,15.41,0,0,0,2.13,10.7q3,5.07,10.64,7.86Z" transform="translate(0 0)"/></g><g id="volution"><path class="cls-1" d="M225.79,366.18q7.19,2.64,14.35,5.15-9.21,14-18.48,27.74c-1.8,2.68-3.29,4.27-4.48,4.79q-3.48,1.61-9.29-.65c-4.13-1.62-6.91-3.88-8.3-6.74a20.11,20.11,0,0,1-1.34-7.11q-1.14-17.3-2-34.58,7.19,2.89,14.34,5.66.3,14.34.77,28.67Q218.58,377.73,225.79,366.18Z" transform="translate(0 0)"/><path class="cls-1" d="M266.42,378.59A28,28,0,0,1,282,390a21.59,21.59,0,0,1,3.37,17.33A18,18,0,0,1,274.91,420q-8.46,4-18.32.79a29,29,0,0,1-15.67-11.94q-5.62-8.58-3.46-17.26c1.42-5.72,5-9.79,10.65-12.29S259.87,376.52,266.42,378.59Zm-2.93,12.63a9.54,9.54,0,0,0-7.14.35,7.16,7.16,0,0,0-4.19,5,8.68,8.68,0,0,0,1.32,6.89,11,11,0,0,0,6.08,4.7,9.19,9.19,0,0,0,7.11-.39,7.27,7.27,0,0,0,4.09-5,8.83,8.83,0,0,0-1.27-6.94A10.64,10.64,0,0,0,263.49,391.22Z" transform="translate(0 0)"/><path class="cls-1" d="M302.3,433.05q-7-1.85-14-3.84,6.45-28.57,13-57.29,6.88,1.84,13.78,3.57Q308.71,404.34,302.3,433.05Z" transform="translate(0 0)"/><path class="cls-1" d="M346.7,400.93q6.92,1.41,13.84,2.67-2.42,11.5-4.86,23c-1.26,5.91-4,10.23-8.36,12.91s-9.63,3.33-15.95,1.93c-6.67-1.48-11.56-4.77-14.67-9.71q-3.46-5.6-1.55-14.28,2.48-11.19,4.94-22.4c4.62,1.11,9.22,2.18,13.84,3.2q-2.28,10.51-4.57,21c-1.15,5.29.42,8.43,4.71,9.37a6.17,6.17,0,0,0,5.88-1.57c1-.94,1.78-2.79,2.37-5.53Q344.54,411.22,346.7,400.93Z" transform="translate(0 0)"/><path class="cls-1" d="M381.61,418.73q-1.22,5.88-2.45,11.75c-.54,2.59-.39,4.44.46,5.53s2.75,1.88,5.72,2.3l3.59.5q-1.17,5.67-2.36,11.33c-1.81-.25-3.6-.51-5.4-.78-6.83-1-11.48-2.94-14-5.67q-4.21-4.63-2.24-14,4-18.74,7.85-37.51,6.92,1.14,13.84,2.15-1.33,6.54-2.69,13.08,5.56.82,11.15,1.55-1.15,5.67-2.33,11.33Q387.19,419.61,381.61,418.73Z" transform="translate(0 0)"/><path class="cls-1" d="M407.07,452.73q-7-.75-14-1.64,4.31-20.59,8.52-41.21,6.95.84,13.93,1.54Q411.4,432,407.07,452.73Zm5.86-63a7.74,7.74,0,0,1,5.57,3,7.15,7.15,0,0,1,1.4,6.06,8.6,8.6,0,0,1-3.75,5.53,9.61,9.61,0,0,1-6.69,1.74,7.91,7.91,0,0,1-5.62-3.13,7.24,7.24,0,0,1-1.44-6,8.57,8.57,0,0,1,3.72-5.55,9.79,9.79,0,0,1,6.81-1.65Z" transform="translate(0 0)"/><path class="cls-1" d="M447,412.31c6.82.35,12.15,2.71,16,7.15s5.11,9.79,3.82,16.12q-1.81,9-10.29,15.22a27.56,27.56,0,0,1-18.32,5.7c-6.7-.39-11.94-3-15.75-7.67a18.66,18.66,0,0,1-3.83-16.24c1.24-6,4.62-11,10.16-14.93A28,28,0,0,1,447,412.31Zm-2.55,13.21a10.75,10.75,0,0,0-7.12,2.2,9.77,9.77,0,0,0-4,6,7.53,7.53,0,0,0,1.48,6.48,8.1,8.1,0,0,0,6.16,3,10.47,10.47,0,0,0,7.09-2.27,10,10,0,0,0,4-6,7.52,7.52,0,0,0-1.44-6.51,8,8,0,0,0-6.17-2.9Z" transform="translate(0 0)"/><path class="cls-1" d="M511.62,455.23q-7.23.4-14.42.66,2.34-11.13,4.59-22.25c.57-2.81.48-4.79-.26-6-.94-1.45-2.52-2.15-4.73-2.08a7.66,7.66,0,0,0-6.91,4,17.71,17.71,0,0,0-1.39,4.49q-2.24,11.07-4.56,22.14-7.14.1-14.24,0,2.46-11.82,4.85-23.64c1.25-6.15,4-10.91,8.34-14.32s9.77-5.15,16.4-5.33,11.48,1.3,14.52,4.52,4,7.85,2.72,14Q514.13,443.32,511.62,455.23Z" transform="translate(0 0)"/></g></g><g id="electrons"><circle class="cls-2" cx="587.62" cy="55.95" r="20.51"/><circle class="cls-3" cx="98.33" cy="55.95" r="15.12"/><circle class="cls-2" cx="574.67" cy="225.89" r="24.04" transform="translate(248.2 750) rotate(-79.54)"/></g></svg>